<?xml version="1.0" encoding="UTF-8" standalone="no"?>
<svg
   xmlns:dc="http://purl.org/dc/elements/1.1/"
   xmlns:cc="http://creativecommons.org/ns#"
   xmlns:rdf="http://www.w3.org/1999/02/22-rdf-syntax-ns#"
   xmlns:svg="http://www.w3.org/2000/svg"
   xmlns="http://www.w3.org/2000/svg"
   viewBox="0 0 1085.3713 296.94586"
   height="100"
   width="238.3713"
   xml:space="preserve"
   id="svg2"
   version="1.1"><metadata
     id="metadata8"><rdf:RDF><cc:Work
         rdf:about=""><dc:format>image/svg+xml</dc:format><dc:type
           rdf:resource="http://purl.org/dc/dcmitype/StillImage" /></cc:Work></rdf:RDF></metadata><defs
     id="defs6"><clipPath
       id="clipPath14"
       clipPathUnits="userSpaceOnUse"><path
         id="path12"
         d="M 0,0 H 1920 V 1080 H 0 Z" /></clipPath><clipPath
       id="clipPath42"
       clipPathUnits="userSpaceOnUse"><path
         id="path40"
         d="M 0,1080 H 1920 V 0 H 0 Z" /></clipPath></defs><g
     clip-path="url(#clipPath14)"
     transform="matrix(1.3333333,0,0,-1.3333333,-668.17667,898.00067)"
     id="g10"><g
       transform="translate(648.7334,552.0983)"
       id="g16"><path
         id="path18"
         style="fill:#7ed2ee;fill-opacity:1;fill-rule:nonzero;stroke:none"
         d="m 0,0 -19.544,-19.544 -19.544,-19.544 27.808,-27.808 h 52.13 v 26.046 81.7 z" /></g><g
       transform="translate(650.7497,632.2911)"
       id="g20"><path
         id="path22"
         style="fill:#2db0d7;fill-opacity:1;fill-rule:nonzero;stroke:none"
         d="M 0,0 -41.105,24.999 -82.209,0 l 41.104,-41.105 39.089,-39.088 40.85,-40.85 v 81.7 15.725 z" /></g><g
       transform="translate(609.6451,657.2905)"
       id="g24"><path
         id="path26"
         style="fill:#398cad;fill-opacity:1;fill-rule:nonzero;stroke:none"
         d="m 0,0 -41.105,-24.999 -38.833,-23.619 v -15.724 -81.7 l 40.85,40.85 L 0,-66.104 41.105,-24.999 Z" /></g><g
       transform="translate(590.1011,532.5542)"
       id="g28"><path
         id="path30"
         style="fill:#315a6f;fill-opacity:1;fill-rule:nonzero;stroke:none"
         d="m 0,0 -19.544,19.544 -40.85,40.85 v -81.7 -26.046 h 52.13 l 27.808,27.808 z" /></g><g
       transform="translate(581.8372,485.2021)"
       id="g32"><path
         id="path34"
         style="fill:#7ed2ee;fill-opacity:1;fill-rule:nonzero;stroke:none"
         d="M 0,0 H 55.616 L 27.808,27.808 Z" /></g><g
       id="g36"><g
         clip-path="url(#clipPath42)"
         id="g38"><g
           transform="translate(859.5285,529.7099)"
           id="g44"><path
             id="path46"
             style="fill:#315a6f;fill-opacity:1;fill-rule:nonzero;stroke:none"
             d="m 0,0 c 3.533,2.049 6.301,4.927 8.309,8.636 2.006,3.706 3.009,7.959 3.009,12.757 0,4.797 -1.003,9.049 -3.009,12.758 -2.008,3.706 -4.776,6.563 -8.309,8.57 -3.533,2.006 -7.523,3.011 -11.972,3.011 -4.449,0 -8.44,-1.005 -11.973,-3.011 -3.533,-2.007 -6.326,-4.864 -8.374,-8.57 -2.051,-3.709 -3.075,-7.961 -3.075,-12.758 0,-4.798 1.024,-9.051 3.075,-12.757 2.048,-3.709 4.841,-6.587 8.374,-8.636 3.533,-2.05 7.524,-3.075 11.973,-3.075 4.449,0 8.439,1.025 11.972,3.075 m -30.553,-9.486 c -5.495,3.052 -9.793,7.261 -12.888,12.626 -3.098,5.365 -4.645,11.449 -4.645,18.253 0,6.805 1.547,12.889 4.645,18.253 3.095,5.366 7.393,9.553 12.888,12.562 5.496,3.01 11.689,4.514 18.581,4.514 6.889,0 13.062,-1.504 18.515,-4.514 5.45,-3.009 9.725,-7.196 12.823,-12.562 C 22.461,34.282 24.01,28.198 24.01,21.393 24.01,14.589 22.461,8.505 19.366,3.14 16.268,-2.225 11.993,-6.434 6.543,-9.486 c -5.453,-3.055 -11.626,-4.58 -18.515,-4.58 -6.892,0 -13.085,1.525 -18.581,4.58" /></g><g
           transform="translate(859.5285,529.7099)"
           id="g48"><path
             id="path50"
             style="fill:none;stroke:#315a6f;stroke-width:6;stroke-linecap:butt;stroke-linejoin:miter;stroke-miterlimit:10;stroke-dasharray:none;stroke-opacity:1"
             d="m 0,0 c 3.533,2.049 6.301,4.927 8.309,8.636 2.006,3.706 3.009,7.959 3.009,12.757 0,4.797 -1.003,9.049 -3.009,12.758 -2.008,3.706 -4.776,6.563 -8.309,8.57 -3.533,2.006 -7.523,3.011 -11.972,3.011 -4.449,0 -8.44,-1.005 -11.973,-3.011 -3.533,-2.007 -6.326,-4.864 -8.374,-8.57 -2.051,-3.709 -3.075,-7.961 -3.075,-12.758 0,-4.798 1.024,-9.051 3.075,-12.757 2.048,-3.709 4.841,-6.587 8.374,-8.636 3.533,-2.05 7.524,-3.075 11.973,-3.075 4.449,0 8.439,1.025 11.972,3.075 z m -30.553,-9.486 c -5.495,3.052 -9.793,7.261 -12.888,12.626 -3.098,5.365 -4.645,11.449 -4.645,18.253 0,6.805 1.547,12.889 4.645,18.253 3.095,5.366 7.393,9.553 12.888,12.562 5.496,3.01 11.689,4.514 18.581,4.514 6.889,0 13.062,-1.504 18.515,-4.514 5.45,-3.009 9.725,-7.196 12.823,-12.562 C 22.461,34.282 24.01,28.198 24.01,21.393 24.01,14.589 22.461,8.505 19.366,3.14 16.268,-2.225 11.993,-6.434 6.543,-9.486 c -5.453,-3.055 -11.626,-4.58 -18.515,-4.58 -6.892,0 -13.085,1.525 -18.581,4.58 z" /></g><g
           transform="translate(917.4628,583.2917)"
           id="g52"><path
             id="path54"
             style="fill:#315a6f;fill-opacity:1;fill-rule:nonzero;stroke:none"
             d="M 0,0 C 4.273,2.094 9.464,3.141 15.571,3.141 V -9.028 c -0.699,0.086 -1.658,0.131 -2.879,0.131 -6.804,0 -12.148,-2.028 -16.029,-6.085 -3.882,-4.056 -5.822,-9.836 -5.822,-17.337 V -66.863 H -21.721 V 2.486 H -9.683 V -9.159 C -7.503,-5.148 -4.275,-2.094 0,0" /></g><g
           transform="translate(917.4628,583.2917)"
           id="g56"><path
             id="path58"
             style="fill:none;stroke:#315a6f;stroke-width:6;stroke-linecap:butt;stroke-linejoin:miter;stroke-miterlimit:10;stroke-dasharray:none;stroke-opacity:1"
             d="M 0,0 C 4.273,2.094 9.464,3.141 15.571,3.141 V -9.028 c -0.699,0.086 -1.658,0.131 -2.879,0.131 -6.804,0 -12.148,-2.028 -16.029,-6.085 -3.882,-4.056 -5.822,-9.836 -5.822,-17.337 V -66.863 H -21.721 V 2.486 H -9.683 V -9.159 C -7.503,-5.148 -4.275,-2.094 0,0 Z" /></g><g
           transform="translate(1027.0624,608.0222)"
           id="g60"><path
             id="path62"
             style="fill:#2db0d7;fill-opacity:1;fill-rule:nonzero;stroke:none"
             d="m 0,0 v -91.593 h -13.084 v 40.824 H -65.685 V -91.593 H -78.77 V 0 h 13.085 v -39.385 h 52.601 V 0 Z" /></g><g
           transform="translate(1027.0624,608.0222)"
           id="g64"><path
             id="path66"
             style="fill:none;stroke:#2db0d7;stroke-width:6;stroke-linecap:butt;stroke-linejoin:miter;stroke-miterlimit:10;stroke-dasharray:none;stroke-opacity:1"
             d="m 0,0 v -91.593 h -13.084 v 40.824 H -65.685 V -91.593 H -78.77 V 0 h 13.085 v -39.385 h 52.601 V 0 Z" /></g><g
           transform="translate(1089.255,529.7099)"
           id="g68"><path
             id="path70"
             style="fill:#2db0d7;fill-opacity:1;fill-rule:nonzero;stroke:none"
             d="m 0,0 c 3.533,2.049 6.301,4.927 8.309,8.636 2.005,3.706 3.009,7.959 3.009,12.757 0,4.797 -1.004,9.049 -3.009,12.758 -2.008,3.706 -4.776,6.563 -8.309,8.57 -3.533,2.006 -7.523,3.011 -11.973,3.011 -4.448,0 -8.439,-1.005 -11.972,-3.011 -3.533,-2.007 -6.326,-4.864 -8.374,-8.57 -2.051,-3.709 -3.075,-7.961 -3.075,-12.758 0,-4.798 1.024,-9.051 3.075,-12.757 2.048,-3.709 4.841,-6.587 8.374,-8.636 3.533,-2.05 7.524,-3.075 11.972,-3.075 4.45,0 8.44,1.025 11.973,3.075 m -30.553,-9.486 c -5.496,3.052 -9.793,7.261 -12.888,12.626 -3.098,5.365 -4.645,11.449 -4.645,18.253 0,6.805 1.547,12.889 4.645,18.253 3.095,5.366 7.392,9.553 12.888,12.562 5.496,3.01 11.688,4.514 18.58,4.514 6.89,0 13.062,-1.504 18.515,-4.514 5.451,-3.009 9.726,-7.196 12.823,-12.562 C 22.461,34.282 24.01,28.198 24.01,21.393 24.01,14.589 22.461,8.505 19.365,3.14 16.268,-2.225 11.993,-6.434 6.542,-9.486 c -5.453,-3.055 -11.625,-4.58 -18.515,-4.58 -6.892,0 -13.084,1.525 -18.58,4.58" /></g><g
           transform="translate(1089.255,529.7099)"
           id="g72"><path
             id="path74"
             style="fill:none;stroke:#2db0d7;stroke-width:6;stroke-linecap:butt;stroke-linejoin:miter;stroke-miterlimit:10;stroke-dasharray:none;stroke-opacity:1"
             d="m 0,0 c 3.533,2.049 6.301,4.927 8.309,8.636 2.005,3.706 3.009,7.959 3.009,12.757 0,4.797 -1.004,9.049 -3.009,12.758 -2.008,3.706 -4.776,6.563 -8.309,8.57 -3.533,2.006 -7.523,3.011 -11.973,3.011 -4.448,0 -8.439,-1.005 -11.972,-3.011 -3.533,-2.007 -6.326,-4.864 -8.374,-8.57 -2.051,-3.709 -3.075,-7.961 -3.075,-12.758 0,-4.798 1.024,-9.051 3.075,-12.757 2.048,-3.709 4.841,-6.587 8.374,-8.636 3.533,-2.05 7.524,-3.075 11.972,-3.075 4.45,0 8.44,1.025 11.973,3.075 z m -30.553,-9.486 c -5.496,3.052 -9.793,7.261 -12.888,12.626 -3.098,5.365 -4.645,11.449 -4.645,18.253 0,6.805 1.547,12.889 4.645,18.253 3.095,5.366 7.392,9.553 12.888,12.562 5.496,3.01 11.688,4.514 18.58,4.514 6.89,0 13.062,-1.504 18.515,-4.514 5.451,-3.009 9.726,-7.196 12.823,-12.562 C 22.461,34.282 24.01,28.198 24.01,21.393 24.01,14.589 22.461,8.505 19.365,3.14 16.268,-2.225 11.993,-6.434 6.542,-9.486 c -5.453,-3.055 -11.625,-4.58 -18.515,-4.58 -6.892,0 -13.084,1.525 -18.58,4.58 z" /></g><g
           transform="translate(1133.6248,517.9337)"
           id="g76"><path
             id="path78"
             style="fill:#2db0d7;fill-opacity:1;fill-rule:nonzero;stroke:none"
             d="m 0,0 c -5.234,1.525 -9.335,3.467 -12.3,5.823 l 5.234,9.944 C -4.014,13.586 -0.307,11.842 4.056,10.533 8.417,9.225 12.823,8.57 17.272,8.57 c 10.99,0 16.487,3.141 16.487,9.422 0,2.093 -0.742,3.75 -2.225,4.972 -1.484,1.22 -3.336,2.114 -5.561,2.682 -2.225,0.566 -5.387,1.199 -9.486,1.897 -5.584,0.871 -10.141,1.875 -13.674,3.01 -3.533,1.132 -6.564,3.052 -9.094,5.757 -2.531,2.703 -3.794,6.497 -3.794,11.384 0,6.28 2.616,11.318 7.85,15.113 5.234,3.794 12.255,5.692 21.067,5.692 4.622,0 9.245,-0.569 13.87,-1.702 4.622,-1.134 8.417,-2.661 11.384,-4.579 l -5.365,-9.944 c -5.672,3.664 -12.345,5.495 -20.02,5.495 -5.322,0 -9.378,-0.873 -12.169,-2.617 -2.793,-1.746 -4.187,-4.056 -4.187,-6.935 0,-2.269 0.786,-4.056 2.356,-5.365 1.57,-1.308 3.51,-2.269 5.822,-2.878 2.311,-0.611 5.561,-1.309 9.748,-2.094 5.582,-0.961 10.096,-1.985 13.543,-3.075 3.445,-1.091 6.389,-2.943 8.832,-5.56 2.442,-2.618 3.664,-6.281 3.664,-10.992 0,-6.28 -2.683,-11.275 -8.047,-14.982 C 32.908,-0.437 25.601,-2.289 16.356,-2.289 10.684,-2.289 5.234,-1.525 0,0" /></g><g
           transform="translate(1133.6248,517.9337)"
           id="g80"><path
             id="path82"
             style="fill:none;stroke:#2db0d7;stroke-width:6;stroke-linecap:butt;stroke-linejoin:miter;stroke-miterlimit:10;stroke-dasharray:none;stroke-opacity:1"
             d="m 0,0 c -5.234,1.525 -9.335,3.467 -12.3,5.823 l 5.234,9.944 C -4.014,13.586 -0.307,11.842 4.056,10.533 8.417,9.225 12.823,8.57 17.272,8.57 c 10.99,0 16.487,3.141 16.487,9.422 0,2.093 -0.742,3.75 -2.225,4.972 -1.484,1.22 -3.336,2.114 -5.561,2.682 -2.225,0.566 -5.387,1.199 -9.486,1.897 -5.584,0.871 -10.141,1.875 -13.674,3.01 -3.533,1.132 -6.564,3.052 -9.094,5.757 -2.531,2.703 -3.794,6.497 -3.794,11.384 0,6.28 2.616,11.318 7.85,15.113 5.234,3.794 12.255,5.692 21.067,5.692 4.622,0 9.245,-0.569 13.87,-1.702 4.622,-1.134 8.417,-2.661 11.384,-4.579 l -5.365,-9.944 c -5.672,3.664 -12.345,5.495 -20.02,5.495 -5.322,0 -9.378,-0.873 -12.169,-2.617 -2.793,-1.746 -4.187,-4.056 -4.187,-6.935 0,-2.269 0.786,-4.056 2.356,-5.365 1.57,-1.308 3.51,-2.269 5.822,-2.878 2.311,-0.611 5.561,-1.309 9.748,-2.094 5.582,-0.961 10.096,-1.985 13.543,-3.075 3.445,-1.091 6.389,-2.943 8.832,-5.56 2.442,-2.618 3.664,-6.281 3.664,-10.992 0,-6.28 -2.683,-11.275 -8.047,-14.982 C 32.908,-0.437 25.601,-2.289 16.356,-2.289 10.684,-2.289 5.234,-1.525 0,0 Z" /></g><g
           transform="translate(1228.2133,520.4852)"
           id="g84"><path
             id="path86"
             style="fill:#2db0d7;fill-opacity:1;fill-rule:nonzero;stroke:none"
             d="m 0,0 c -1.832,-1.57 -4.101,-2.77 -6.803,-3.598 -2.706,-0.828 -5.497,-1.243 -8.375,-1.243 -6.98,0 -12.387,1.874 -16.225,5.627 -3.84,3.749 -5.757,9.114 -5.757,16.093 v 63.592 h 12.561 V 65.293 H -4.711 V 54.956 H -24.599 V 17.403 c 0,-3.752 0.937,-6.631 2.813,-8.636 1.875,-2.008 4.557,-3.01 8.047,-3.01 3.838,0 7.109,1.09 9.814,3.271 z" /></g><g
           transform="translate(1228.2133,520.4852)"
           id="g88"><path
             id="path90"
             style="fill:none;stroke:#2db0d7;stroke-width:6;stroke-linecap:butt;stroke-linejoin:miter;stroke-miterlimit:10;stroke-dasharray:none;stroke-opacity:1"
             d="m 0,0 c -1.832,-1.57 -4.101,-2.77 -6.803,-3.598 -2.706,-0.828 -5.497,-1.243 -8.375,-1.243 -6.98,0 -12.387,1.874 -16.225,5.627 -3.84,3.749 -5.757,9.114 -5.757,16.093 v 63.592 h 12.561 V 65.293 H -4.711 V 54.956 H -24.599 V 17.403 c 0,-3.752 0.937,-6.631 2.813,-8.636 1.875,-2.008 4.557,-3.01 8.047,-3.01 3.838,0 7.109,1.09 9.814,3.271 z" /></g><g
           transform="translate(1250.5616,517.9337)"
           id="g92"><path
             id="path94"
             style="fill:#2db0d7;fill-opacity:1;fill-rule:nonzero;stroke:none"
             d="m 0,0 c -5.234,1.525 -9.335,3.467 -12.3,5.823 l 5.234,9.944 C -4.014,13.586 -0.307,11.842 4.056,10.533 8.417,9.225 12.823,8.57 17.272,8.57 c 10.99,0 16.487,3.141 16.487,9.422 0,2.093 -0.743,3.75 -2.225,4.972 -1.484,1.22 -3.336,2.114 -5.561,2.682 -2.225,0.566 -5.387,1.199 -9.486,1.897 -5.584,0.871 -10.141,1.875 -13.674,3.01 -3.533,1.132 -6.565,3.052 -9.094,5.757 -2.531,2.703 -3.794,6.497 -3.794,11.384 0,6.28 2.616,11.318 7.85,15.113 5.234,3.794 12.255,5.692 21.067,5.692 4.622,0 9.245,-0.569 13.87,-1.702 4.622,-1.134 8.417,-2.661 11.384,-4.579 l -5.365,-9.944 c -5.672,3.664 -12.345,5.495 -20.02,5.495 -5.322,0 -9.378,-0.873 -12.169,-2.617 -2.793,-1.746 -4.187,-4.056 -4.187,-6.935 0,-2.269 0.785,-4.056 2.356,-5.365 1.57,-1.308 3.509,-2.269 5.822,-2.878 2.311,-0.611 5.561,-1.309 9.748,-2.094 5.581,-0.961 10.095,-1.985 13.543,-3.075 3.444,-1.091 6.389,-2.943 8.832,-5.56 2.441,-2.618 3.664,-6.281 3.664,-10.992 0,-6.28 -2.683,-11.275 -8.047,-14.982 C 32.907,-0.437 25.601,-2.289 16.356,-2.289 10.684,-2.289 5.234,-1.525 0,0" /></g><g
           transform="translate(1250.5616,517.9337)"
           id="g96"><path
             id="path98"
             style="fill:none;stroke:#2db0d7;stroke-width:6;stroke-linecap:butt;stroke-linejoin:miter;stroke-miterlimit:10;stroke-dasharray:none;stroke-opacity:1"
             d="m 0,0 c -5.234,1.525 -9.335,3.467 -12.3,5.823 l 5.234,9.944 C -4.014,13.586 -0.307,11.842 4.056,10.533 8.417,9.225 12.823,8.57 17.272,8.57 c 10.99,0 16.487,3.141 16.487,9.422 0,2.093 -0.743,3.75 -2.225,4.972 -1.484,1.22 -3.336,2.114 -5.561,2.682 -2.225,0.566 -5.387,1.199 -9.486,1.897 -5.584,0.871 -10.141,1.875 -13.674,3.01 -3.533,1.132 -6.565,3.052 -9.094,5.757 -2.531,2.703 -3.794,6.497 -3.794,11.384 0,6.28 2.616,11.318 7.85,15.113 5.234,3.794 12.255,5.692 21.067,5.692 4.622,0 9.245,-0.569 13.87,-1.702 4.622,-1.134 8.417,-2.661 11.384,-4.579 l -5.365,-9.944 c -5.672,3.664 -12.345,5.495 -20.02,5.495 -5.322,0 -9.378,-0.873 -12.169,-2.617 -2.793,-1.746 -4.187,-4.056 -4.187,-6.935 0,-2.269 0.785,-4.056 2.356,-5.365 1.57,-1.308 3.509,-2.269 5.822,-2.878 2.311,-0.611 5.561,-1.309 9.748,-2.094 5.581,-0.961 10.095,-1.985 13.543,-3.075 3.444,-1.091 6.389,-2.943 8.832,-5.56 2.441,-2.618 3.664,-6.281 3.664,-10.992 0,-6.28 -2.683,-11.275 -8.047,-14.982 C 32.907,-0.437 25.601,-2.289 16.356,-2.289 10.684,-2.289 5.234,-1.525 0,0 Z" /></g><g
           transform="translate(911.569,487.2159)"
           id="g100"><path
             id="path102"
             style="fill:#315a6f;fill-opacity:1;fill-rule:nonzero;stroke:none"
             d="m 0,0 c 0.662,0.43 0.993,1.105 0.993,2.026 0,1.796 -1.317,2.693 -3.95,2.693 h -5.315 v -5.364 h 5.315 C -1.649,-0.645 -0.662,-0.43 0,0 M -8.272,11.74 V 6.584 h 4.737 c 1.186,0 2.098,0.218 2.738,0.656 0.639,0.437 0.959,1.078 0.959,1.922 0,0.844 -0.32,1.485 -0.959,1.922 -0.64,0.438 -1.552,0.656 -2.738,0.656 z M 2.518,4.431 C 3.058,3.748 3.327,2.885 3.327,1.842 3.327,0.445 2.799,-0.629 1.745,-1.381 0.689,-2.133 -0.848,-2.509 -2.865,-2.509 h -7.717 v 16.114 h 7.255 c 1.848,0 3.277,-0.369 4.286,-1.105 C 1.968,11.763 2.472,10.742 2.472,9.438 2.472,8.594 2.276,7.865 1.883,7.252 1.49,6.637 0.963,6.17 0.3,5.847 1.24,5.586 1.979,5.114 2.518,4.431" /></g><g
           transform="translate(933.5997,487.377)"
           id="g104"><path
             id="path106"
             style="fill:#315a6f;fill-opacity:1;fill-rule:nonzero;stroke:none"
             d="m 0,0 c 0.947,0.537 1.694,1.277 2.241,2.221 0.547,0.944 0.82,2 0.82,3.166 0,1.166 -0.273,2.221 -0.82,3.165 C 1.694,9.496 0.947,10.236 0,10.773 c -0.947,0.537 -2.014,0.806 -3.2,0.806 -1.186,0 -2.261,-0.269 -3.223,-0.806 -0.963,-0.537 -1.718,-1.277 -2.265,-2.221 -0.547,-0.944 -0.82,-1.999 -0.82,-3.165 0,-1.166 0.273,-2.222 0.82,-3.166 0.547,-0.944 1.302,-1.684 2.265,-2.221 0.962,-0.537 2.037,-0.806 3.223,-0.806 1.186,0 2.253,0.269 3.2,0.806 m -7.613,-1.785 c -1.31,0.714 -2.338,1.701 -3.085,2.959 -0.747,1.258 -1.121,2.662 -1.121,4.213 0,1.549 0.374,2.954 1.121,4.212 0.747,1.259 1.775,2.245 3.085,2.959 1.309,0.713 2.78,1.07 4.413,1.07 1.617,0 3.081,-0.357 4.39,-1.07 C 2.499,11.844 3.524,10.862 4.263,9.611 5.002,8.36 5.372,6.952 5.372,5.387 5.372,3.822 5.002,2.413 4.263,1.162 3.524,-0.089 2.499,-1.071 1.19,-1.785 c -1.309,-0.713 -2.773,-1.07 -4.39,-1.07 -1.633,0 -3.104,0.357 -4.413,1.07" /></g><g
           transform="translate(957.6298,487.377)"
           id="g108"><path
             id="path110"
             style="fill:#315a6f;fill-opacity:1;fill-rule:nonzero;stroke:none"
             d="m 0,0 c 0.947,0.537 1.694,1.277 2.241,2.221 0.546,0.944 0.82,2 0.82,3.166 0,1.166 -0.274,2.221 -0.82,3.165 C 1.694,9.496 0.947,10.236 0,10.773 c -0.947,0.537 -2.015,0.806 -3.201,0.806 -1.186,0 -2.26,-0.269 -3.223,-0.806 -0.962,-0.537 -1.717,-1.277 -2.264,-2.221 -0.547,-0.944 -0.82,-1.999 -0.82,-3.165 0,-1.166 0.273,-2.222 0.82,-3.166 0.547,-0.944 1.302,-1.684 2.264,-2.221 0.963,-0.537 2.037,-0.806 3.223,-0.806 1.186,0 2.254,0.269 3.201,0.806 m -7.614,-1.785 c -1.309,0.714 -2.337,1.701 -3.084,2.959 -0.747,1.258 -1.121,2.662 -1.121,4.213 0,1.549 0.374,2.954 1.121,4.212 0.747,1.259 1.775,2.245 3.084,2.959 1.31,0.713 2.78,1.07 4.413,1.07 1.618,0 3.081,-0.357 4.39,-1.07 1.309,-0.714 2.334,-1.696 3.073,-2.947 0.74,-1.251 1.11,-2.659 1.11,-4.224 0,-1.565 -0.37,-2.974 -1.11,-4.225 -0.739,-1.251 -1.764,-2.233 -3.073,-2.947 -1.309,-0.713 -2.772,-1.07 -4.39,-1.07 -1.633,0 -3.103,0.357 -4.413,1.07" /></g><g
           transform="translate(976.4255,491.8662)"
           id="g112"><path
             id="path114"
             style="fill:#315a6f;fill-opacity:1;fill-rule:nonzero;stroke:none"
             d="M 0,0 -2.958,-2.993 V -7.16 h -2.31 V 8.954 h 2.31 v -9 l 8.781,9 H 8.457 L 1.548,1.704 8.896,-7.16 H 6.192 Z" /></g><path
           id="path116"
           style="fill:#315a6f;fill-opacity:1;fill-rule:nonzero;stroke:none"
           d="m 992.39,500.821 h 2.311 v -16.114 h -2.311 z" /><g
           transform="translate(1018.085,500.8207)"
           id="g118"><path
             id="path120"
             style="fill:#315a6f;fill-opacity:1;fill-rule:nonzero;stroke:none"
             d="m 0,0 v -16.114 h -1.895 l -9.704,12.016 V -16.114 H -13.91 V 0 h 1.894 l 9.705,-12.016 V 0 Z" /></g><g
           transform="translate(1038.7633,492.8561)"
           id="g122"><path
             id="path124"
             style="fill:#315a6f;fill-opacity:1;fill-rule:nonzero;stroke:none"
             d="m 0,0 h 2.219 v -6.285 c -0.802,-0.66 -1.734,-1.166 -2.796,-1.519 -1.064,-0.353 -2.173,-0.53 -3.328,-0.53 -1.633,0 -3.104,0.357 -4.413,1.07 -1.309,0.714 -2.338,1.696 -3.084,2.947 -0.747,1.251 -1.121,2.659 -1.121,4.225 0,1.565 0.374,2.977 1.121,4.235 0.746,1.259 1.779,2.241 3.095,2.947 1.318,0.706 2.8,1.059 4.449,1.059 1.293,0 2.468,-0.211 3.523,-0.633 C 0.72,7.093 1.617,6.476 2.357,5.662 L 0.924,4.235 C -0.369,5.478 -1.933,6.1 -3.766,6.1 -4.998,6.1 -6.104,5.836 -7.082,5.306 -8.06,4.777 -8.827,4.04 -9.381,3.096 c -0.554,-0.944 -0.831,-2.007 -0.831,-3.188 0,-1.166 0.277,-2.222 0.831,-3.166 0.554,-0.944 1.321,-1.684 2.299,-2.221 0.978,-0.537 2.076,-0.806 3.293,-0.806 1.448,0 2.71,0.345 3.789,1.036 z" /></g><g
           transform="translate(1092.2125,484.7065)"
           id="g126"><path
             id="path128"
             style="fill:#315a6f;fill-opacity:1;fill-rule:nonzero;stroke:none"
             d="M 0,0 -0.023,11.74 -5.869,1.957 h -1.062 l -5.846,9.714 V 0 h -2.218 v 16.114 h 1.894 L -6.354,4.788 0.301,16.114 H 2.196 L 2.219,0 Z" /></g><g
           transform="translate(1113.3999,490.577)"
           id="g130"><path
             id="path132"
             style="fill:#315a6f;fill-opacity:1;fill-rule:nonzero;stroke:none"
             d="M 0,0 -3.489,7.896 -6.978,0 Z m 0.808,-1.842 h -8.594 l -1.78,-4.028 h -2.38 l 7.325,16.114 h 2.287 L 5.014,-5.87 H 2.588 Z" /></g><g
           transform="translate(1132.1155,486.7094)"
           id="g134"><path
             id="path136"
             style="fill:#315a6f;fill-opacity:1;fill-rule:nonzero;stroke:none"
             d="m 0,0 c 1.309,0 2.461,0.253 3.454,0.76 0.993,0.506 1.76,1.216 2.299,2.129 0.539,0.913 0.809,1.969 0.809,3.166 0,1.197 -0.27,2.251 -0.809,3.165 C 5.214,10.133 4.447,10.842 3.454,11.349 2.461,11.855 1.309,12.108 0,12.108 H -4.367 V 0 Z m -6.678,14.111 h 6.816 c 1.711,0 3.227,-0.337 4.552,-1.013 C 6.015,12.423 7.043,11.476 7.774,10.256 8.506,9.035 8.873,7.635 8.873,6.055 8.873,4.474 8.506,3.073 7.774,1.853 7.043,0.633 6.015,-0.315 4.69,-0.99 3.365,-1.665 1.849,-2.003 0.138,-2.003 h -6.816 z" /></g><g
           transform="translate(1160.8812,486.7094)"
           id="g138"><path
             id="path140"
             style="fill:#315a6f;fill-opacity:1;fill-rule:nonzero;stroke:none"
             d="M 0,0 V -2.003 H -11.738 V 14.111 H -0.323 V 12.108 H -9.427 V 7.16 h 8.11 V 5.203 h -8.11 V 0 Z" /></g><g
           transform="translate(1180.6967,485.086)"
           id="g142"><path
             id="path144"
             style="fill:#315a6f;fill-opacity:1;fill-rule:nonzero;stroke:none"
             d="m 0,0 c -1.132,0.376 -2.022,0.864 -2.669,1.462 l 0.855,1.796 C -1.198,2.705 -0.408,2.256 0.554,1.911 1.517,1.565 2.507,1.393 3.523,1.393 4.864,1.393 5.865,1.619 6.527,2.072 7.19,2.525 7.52,3.128 7.52,3.88 7.52,4.432 7.34,4.881 6.978,5.226 6.616,5.571 6.169,5.836 5.638,6.021 5.106,6.205 4.355,6.412 3.385,6.642 2.168,6.933 1.186,7.224 0.439,7.517 c -0.748,0.291 -1.386,0.74 -1.918,1.346 -0.531,0.606 -0.797,1.423 -0.797,2.452 0,0.859 0.227,1.634 0.682,2.325 0.454,0.69 1.143,1.243 2.067,1.657 0.924,0.415 2.072,0.622 3.443,0.622 0.955,0 1.895,-0.123 2.819,-0.368 0.924,-0.246 1.717,-0.599 2.38,-1.059 L 8.353,12.65 c -0.678,0.43 -1.402,0.756 -2.172,0.979 -0.771,0.222 -1.526,0.333 -2.265,0.333 -1.309,0 -2.291,-0.238 -2.946,-0.714 -0.655,-0.475 -0.982,-1.089 -0.982,-1.841 0,-0.553 0.185,-1.001 0.555,-1.347 C 0.912,9.715 1.371,9.446 1.918,9.255 2.464,9.063 3.208,8.859 4.147,8.645 5.364,8.353 6.342,8.061 7.082,7.77 7.821,7.478 8.457,7.033 8.988,6.435 9.519,5.836 9.785,5.031 9.785,4.018 9.785,3.174 9.554,2.402 9.092,1.704 8.63,1.005 7.929,0.453 6.989,0.046 6.05,-0.361 4.894,-0.564 3.523,-0.564 2.306,-0.564 1.132,-0.376 0,0" /></g><g
           transform="translate(1051.745,485.086)"
           id="g146"><path
             id="path148"
             style="fill:#315a6f;fill-opacity:1;fill-rule:nonzero;stroke:none"
             d="m 0,0 c -1.132,0.376 -2.022,0.864 -2.669,1.462 l 0.856,1.796 C -1.198,2.705 -0.408,2.256 0.554,1.911 1.517,1.565 2.507,1.393 3.523,1.393 4.864,1.393 5.865,1.619 6.527,2.072 7.19,2.525 7.52,3.128 7.52,3.88 7.52,4.432 7.34,4.881 6.978,5.226 6.616,5.571 6.169,5.836 5.638,6.021 5.107,6.205 4.355,6.412 3.385,6.642 2.168,6.933 1.186,7.224 0.439,7.517 c -0.748,0.291 -1.386,0.74 -1.917,1.346 -0.532,0.606 -0.798,1.423 -0.798,2.452 0,0.859 0.227,1.634 0.682,2.325 0.454,0.69 1.143,1.243 2.067,1.657 0.925,0.415 2.072,0.622 3.443,0.622 0.955,0 1.895,-0.123 2.819,-0.368 0.924,-0.246 1.717,-0.599 2.38,-1.059 L 8.353,12.65 c -0.678,0.43 -1.402,0.756 -2.172,0.979 -0.771,0.222 -1.525,0.333 -2.265,0.333 -1.309,0 -2.291,-0.238 -2.946,-0.714 -0.654,-0.475 -0.982,-1.089 -0.982,-1.841 0,-0.553 0.185,-1.001 0.555,-1.347 C 0.912,9.715 1.371,9.446 1.918,9.255 2.464,9.063 3.208,8.859 4.147,8.645 5.364,8.353 6.342,8.061 7.082,7.77 7.821,7.478 8.457,7.033 8.988,6.435 9.519,5.836 9.785,5.031 9.785,4.018 9.785,3.174 9.554,2.402 9.092,1.704 8.63,1.005 7.929,0.453 6.989,0.046 6.05,-0.361 4.894,-0.564 3.523,-0.564 2.307,-0.564 1.132,-0.376 0,0" /></g><path
           id="path150"
           style="fill:#315a6f;fill-opacity:1;fill-rule:nonzero;stroke:none"
           d="m 1198.476,500.821 h 2.311 v -16.114 h -2.311 z" /><g
           transform="translate(1225.2551,484.7065)"
           id="g152"><path
             id="path154"
             style="fill:#315a6f;fill-opacity:1;fill-rule:nonzero;stroke:none"
             d="M 0,0 -0.023,11.74 -5.869,1.957 h -1.062 l -5.846,9.714 V 0 h -2.218 v 16.114 h 1.894 L -6.354,4.788 0.301,16.114 H 2.196 L 2.219,0 Z" /></g><g
           transform="translate(1246.5345,492.5219)"
           id="g156"><path
             id="path158"
             style="fill:#315a6f;fill-opacity:1;fill-rule:nonzero;stroke:none"
             d="M 0,0 C 0.77,0.622 1.155,1.515 1.155,2.682 1.155,3.848 0.77,4.742 0,5.364 -0.77,5.986 -1.887,6.296 -3.35,6.296 h -3.928 v -7.228 h 3.928 c 1.463,0 2.58,0.31 3.35,0.932 m 1.664,6.802 c 1.201,-0.997 1.802,-2.371 1.802,-4.12 0,-1.749 -0.601,-3.124 -1.802,-4.12 -1.202,-0.999 -2.85,-1.497 -4.945,-1.497 h -3.997 v -4.88 H -9.589 V 8.299 h 6.308 c 2.095,0 3.743,-0.499 4.945,-1.497" /></g><g
           transform="translate(1258.0181,500.8207)"
           id="g160"><path
             id="path162"
             style="fill:#315a6f;fill-opacity:1;fill-rule:nonzero;stroke:none"
             d="m 0,0 h 2.311 v -14.111 h 8.757 v -2.003 H 0 Z" /></g><g
           transform="translate(1288.1011,486.7094)"
           id="g164"><path
             id="path166"
             style="fill:#315a6f;fill-opacity:1;fill-rule:nonzero;stroke:none"
             d="M 0,0 V -2.003 H -11.738 V 14.111 H -0.323 V 12.108 H -9.427 V 7.16 h 8.11 V 5.203 h -8.11 V 0 Z" /></g><g
           transform="translate(1295.7953,485.0169)"
           id="g168"><path
             id="path170"
             style="fill:#315a6f;fill-opacity:1;fill-rule:nonzero;stroke:none"
             d="M 0,0 C -0.309,0.299 -0.462,0.68 -0.462,1.14 -0.462,1.585 -0.309,1.957 0,2.256 0.308,2.555 0.677,2.705 1.109,2.705 1.54,2.705 1.901,2.56 2.195,2.268 2.487,1.976 2.634,1.6 2.634,1.14 2.634,0.68 2.484,0.299 2.183,0 1.883,-0.299 1.525,-0.449 1.109,-0.449 0.677,-0.449 0.308,-0.299 0,0" /></g><g
           transform="translate(804.0202,596.6249)"
           id="g172"><path
             id="path174"
             style="fill:#315a6f;fill-opacity:1;fill-rule:nonzero;stroke:none"
             d="m 0,0 v 11.795 h -66.299 v -92.776 h 13.175 v 37.004 h 47.367 v 11.795 H -53.124 V 0 Z" /></g><g
           transform="translate(804.0202,596.6249)"
           id="g176"><path
             id="path178"
             style="fill:none;stroke:#315a6f;stroke-width:6;stroke-linecap:butt;stroke-linejoin:miter;stroke-miterlimit:10;stroke-dasharray:none;stroke-opacity:1"
             d="m 0,0 v 11.795 h -66.299 v -92.776 h 13.175 v 37.004 h 47.367 v 11.795 H -53.124 V 0 Z" /></g><path
           id="path180"
           style="fill:#398cad;fill-opacity:1;fill-rule:nonzero;stroke:none"
           d="m 570.806,608.42 h -25.613 v 42.323 h 25.613 z" /></g></g></g></svg>