<?xml version="1.0" ?><!-- Uploaded to: SVG Repo, www.svgrepo.com, Generator: SVG Repo Mixer Tools -->
<svg fill="#000000" width="800px" height="800px" viewBox="-20 0 158 158" xmlns="http://www.w3.org/2000/svg"><path d="     M 110.055523872375,70.4044661521912     C 110.055523872375,70.4044661521912 110.055523872375,156.08903169632 110.055523872375,156.08903169632     C 110.055523872375,156.08903169632 7.11745285987854,156.08903169632 7.11745285987854,156.08903169632     C 7.11745285987854,156.08903169632 7.11745285987854,70.4044661521912 7.11745285987854,70.4044661521912     C 7.11745285987854,70.4044661521912 1.26048851013184,70.4044661521912 1.26048851013184,70.4044661521912     C 1.26048851013184,70.4044661521912 15.656035900116,27.1970655918121 15.656035900116,27.1970655918121     C 15.656035900116,27.1970655918121 33.6504279375076,27.1970655918121 33.6504279375076,27.1970655918121     C 33.6504279375076,27.1970655918121 57.0430201292038,1.9928537607193 57.0430201292038,1.9928537607193     C 57.0430201292038,1.9928537607193 80.435696721077,27.1970655918121 80.435696721077,27.1970655918121     C 80.435696721077,27.1970655918121 98.4301801919937,27.1970655918121 98.4301801919937,27.1970655918121     C 98.4301801919937,27.1970655918121 116.42444562912,70.4044661521912 116.42444562912,70.4044661521912     C 116.42444562912,70.4044661521912 110.055523872375,70.4044661521912 110.055523872375,70.4044661521912     Z     M 61.2259562015533,118.22893512249     C 61.2259562015533,118.22893512249 68.190869808197,118.22893512249 68.190869808197,118.22893512249     C 68.190869808197,118.22893512249 68.190869808197,106.959753990173 68.190869808197,106.959753990173     C 68.190869808197,103.531470298767 65.2349786758423,100.649064540863 61.2259562015533,99.8119587898254     C 61.2259562015533,99.8119587898254 61.2259562015533,118.22893512249 61.2259562015533,118.22893512249     Z     M 49.4600369930267,118.22893512249     C 49.4600369930267,118.22893512249 57.2667298316956,118.22893512249 57.2667298316956,118.22893512249     C 57.2667298316956,118.22893512249 57.2667298316956,99.6696127653122 57.2667298316956,99.6696127653122     C 52.8366841077805,100.255835413933 49.4600369930267,103.29560816288 49.4600369930267,106.959753990173     C 49.4600369930267,106.959753990173 49.4600369930267,118.22893512249 49.4600369930267,118.22893512249     Z     M 76.8368872404099,30.7976901531219     C 76.8368872404099,30.7976901531219 76.6576634645462,30.6020785570145 76.6576634645462,30.6020785570145     C 76.6576634645462,30.6020785570145 37.9218575954437,30.0635368824005 37.9218575954437,30.0635368824005     C 37.9218575954437,30.0635368824005 37.2492374181747,30.7976901531219 37.2492374181747,30.7976901531219     C 37.2492374181747,30.7976901531219 37.2492374181747,66.3047311306 37.2492374181747,66.3047311306     C 37.2492374181747,66.3047311306 76.8368872404099,66.3047311306 76.8368872404099,66.3047311306     C 76.8368872404099,66.3047311306 76.8368872404099,30.7976901531219 76.8368872404099,30.7976901531219     Z     M 105.716939806938,70.5912817716599     C 105.716939806938,70.5912817716599 11.4560017585754,70.5912817716599 11.4560017585754,70.5912817716599     C 11.4560017585754,70.5912817716599 11.4560017585754,151.802584648132 11.4560017585754,151.802584648132     C 11.4560017585754,151.802584648132 45.4456129074097,151.802584648132 45.4456129074097,151.802584648132     C 45.4456129074097,151.802584648132 45.4456129074097,104.73503112793 45.4456129074097,104.73503112793     C 45.4456129074097,98.9012832641602 51.4356904029846,94.1721650362015 58.824792265892,94.1721650362015     C 66.2139785289764,94.1721650362015 72.2039645910263,98.9012832641602 72.2039645910263,104.73503112793     C 72.2039645910263,104.73503112793 72.2039645910263,151.802584648132 72.2039645910263,151.802584648132     C 72.2039645910263,151.802584648132 105.716939806938,151.802584648132 105.716939806938,151.802584648132     C 105.716939806938,151.802584648132 105.716939806938,70.5912817716599 105.716939806938,70.5912817716599     Z     M 102.051404953003,85.4499371051788     C 102.051404953003,85.4499371051788 100.571335315704,85.4499371051788 100.571335315704,85.4499371051788     C 100.571335315704,85.4499371051788 100.571335315704,107.795607209206 100.571335315704,107.795607209206     C 100.571335315704,107.795607209206 76.8164412975311,107.795607209206 76.8164412975311,107.795607209206     C 76.8164412975311,107.795607209206 76.8164412975311,85.4499371051788 76.8164412975311,85.4499371051788     C 76.8164412975311,85.4499371051788 74.9971743822098,85.4499371051788 74.9971743822098,85.4499371051788     C 74.9971743822098,85.4499371051788 74.9971743822098,80.8286496400833 74.9971743822098,80.8286496400833     C 74.9971743822098,80.8286496400833 102.051404953003,80.8286496400833 102.051404953003,80.8286496400833     C 102.051404953003,80.8286496400833 102.051404953003,85.4499371051788 102.051404953003,85.4499371051788     Z     M 90.3028018474579,105.102183103561     C 90.3028018474579,105.102183103561 98.0620477199554,105.102183103561 98.0620477199554,105.102183103561     C 98.0620477199554,105.102183103561 98.0620477199554,97.3393193483353 98.0620477199554,97.3393193483353     C 98.0620477199554,97.3393193483353 90.3028018474579,97.3393193483353 90.3028018474579,97.3393193483353     C 90.3028018474579,97.3393193483353 90.3028018474579,105.102183103561 90.3028018474579,105.102183103561     Z     M 90.3028018474579,94.0782063007355     C 90.3028018474579,94.0782063007355 98.0620477199554,94.0782063007355 98.0620477199554,94.0782063007355     C 98.0620477199554,94.0782063007355 98.0620477199554,86.3152860403061 98.0620477199554,86.3152860403061     C 98.0620477199554,86.3152860403061 90.3028018474579,86.3152860403061 90.3028018474579,86.3152860403061     C 90.3028018474579,86.3152860403061 90.3028018474579,94.0782063007355 90.3028018474579,94.0782063007355     Z     M 79.2841618061066,105.102183103561     C 79.2841618061066,105.102183103561 87.0433232784271,105.102183103561 87.0433232784271,105.102183103561     C 87.0433232784271,105.102183103561 87.0433232784271,97.3393193483353 87.0433232784271,97.3393193483353     C 87.0433232784271,97.3393193483353 79.2841618061066,97.3393193483353 79.2841618061066,97.3393193483353     C 79.2841618061066,97.3393193483353 79.2841618061066,105.102183103561 79.2841618061066,105.102183103561     Z     M 79.2841618061066,94.0782063007355     C 79.2841618061066,94.0782063007355 87.0433232784271,94.0782063007355 87.0433232784271,94.0782063007355     C 87.0433232784271,94.0782063007355 87.0433232784271,86.3152860403061 87.0433232784271,86.3152860403061     C 87.0433232784271,86.3152860403061 79.2841618061066,86.3152860403061 79.2841618061066,86.3152860403061     C 79.2841618061066,86.3152860403061 79.2841618061066,94.0782063007355 79.2841618061066,94.0782063007355     Z     M 100.571335315704,140.201068162918     C 100.571335315704,140.201068162918 76.8164412975311,140.201068162918 76.8164412975311,140.201068162918     C 76.8164412975311,140.201068162918 76.8164412975311,115.774584531784 76.8164412975311,115.774584531784     C 76.8164412975311,115.774584531784 100.571335315704,115.774584531784 100.571335315704,115.774584531784     C 100.571335315704,115.774584531784 100.571335315704,140.201068162918 100.571335315704,140.201068162918     Z     M 87.0433232784271,118.720803499222     C 87.0433232784271,118.720803499222 79.2841618061066,118.720803499222 79.2841618061066,118.720803499222     C 79.2841618061066,118.720803499222 79.2841618061066,126.483714342117 79.2841618061066,126.483714342117     C 79.2841618061066,126.483714342117 87.0433232784271,126.483714342117 87.0433232784271,126.483714342117     C 87.0433232784271,126.483714342117 87.0433232784271,118.720803499222 87.0433232784271,118.720803499222     Z     M 87.0433232784271,129.744827389717     C 87.0433232784271,129.744827389717 79.2841618061066,129.744827389717 79.2841618061066,129.744827389717     C 79.2841618061066,129.744827389717 79.2841618061066,137.507747650146 79.2841618061066,137.507747650146     C 79.2841618061066,137.507747650146 87.0433232784271,137.507747650146 87.0433232784271,137.507747650146     C 87.0433232784271,137.507747650146 87.0433232784271,129.744827389717 87.0433232784271,129.744827389717     Z     M 98.0620477199554,118.720803499222     C 98.0620477199554,118.720803499222 90.3028018474579,118.720803499222 90.3028018474579,118.720803499222     C 90.3028018474579,118.720803499222 90.3028018474579,126.483714342117 90.3028018474579,126.483714342117     C 90.3028018474579,126.483714342117 98.0620477199554,126.483714342117 98.0620477199554,126.483714342117     C 98.0620477199554,126.483714342117 98.0620477199554,118.720803499222 98.0620477199554,118.720803499222     Z     M 98.0620477199554,129.744827389717     C 98.0620477199554,129.744827389717 90.3028018474579,129.744827389717 90.3028018474579,129.744827389717     C 90.3028018474579,129.744827389717 90.3028018474579,137.507747650146 90.3028018474579,137.507747650146     C 90.3028018474579,137.507747650146 98.0620477199554,137.507747650146 98.0620477199554,137.507747650146     C 98.0620477199554,137.507747650146 98.0620477199554,129.744827389717 98.0620477199554,129.744827389717     Z     M 41.2499957084656,107.795607209206     C 41.2499957084656,107.795607209206 17.4951016902924,107.795607209206 17.4951016902924,107.795607209206     C 17.4951016902924,107.795607209206 17.4951016902924,85.4499371051788 17.4951016902924,85.4499371051788     C 17.4951016902924,85.4499371051788 15.6955914497375,85.4499371051788 15.6955914497375,85.4499371051788     C 15.6955914497375,85.4499371051788 15.6955914497375,80.8286496400833 15.6955914497375,80.8286496400833     C 15.6955914497375,80.8286496400833 42.7498571872711,80.8286496400833 42.7498571872711,80.8286496400833     C 42.7498571872711,80.8286496400833 42.7498571872711,85.4499371051788 42.7498571872711,85.4499371051788     C 42.7498571872711,85.4499371051788 41.2499957084656,85.4499371051788 41.2499957084656,85.4499371051788     C 41.2499957084656,85.4499371051788 41.2499957084656,107.795607209206 41.2499957084656,107.795607209206     Z     M 30.9814622402191,105.102183103561     C 30.9814622402191,105.102183103561 38.7406659126282,105.102183103561 38.7406659126282,105.102183103561     C 38.7406659126282,105.102183103561 38.7406659126282,97.3393193483353 38.7406659126282,97.3393193483353     C 38.7406659126282,97.3393193483353 30.9814622402191,97.3393193483353 30.9814622402191,97.3393193483353     C 30.9814622402191,97.3393193483353 30.9814622402191,105.102183103561 30.9814622402191,105.102183103561     Z     M 30.9814622402191,94.0782063007355     C 30.9814622402191,94.0782063007355 38.7406659126282,94.0782063007355 38.7406659126282,94.0782063007355     C 38.7406659126282,94.0782063007355 38.7406659126282,86.3152860403061 38.7406659126282,86.3152860403061     C 38.7406659126282,86.3152860403061 30.9814622402191,86.3152860403061 30.9814622402191,86.3152860403061     C 30.9814622402191,86.3152860403061 30.9814622402191,94.0782063007355 30.9814622402191,94.0782063007355     Z     M 19.9627799987793,105.102183103561     C 19.9627799987793,105.102183103561 27.7219836711884,105.102183103561 27.7219836711884,105.102183103561     C 27.7219836711884,105.102183103561 27.7219836711884,97.3393193483353 27.7219836711884,97.3393193483353     C 27.7219836711884,97.3393193483353 19.9627799987793,97.3393193483353 19.9627799987793,97.3393193483353     C 19.9627799987793,97.3393193483353 19.9627799987793,105.102183103561 19.9627799987793,105.102183103561     Z     M 19.9627799987793,94.0782063007355     C 19.9627799987793,94.0782063007355 27.7219836711884,94.0782063007355 27.7219836711884,94.0782063007355     C 27.7219836711884,94.0782063007355 27.7219836711884,86.3152860403061 27.7219836711884,86.3152860403061     C 27.7219836711884,86.3152860403061 19.9627799987793,86.3152860403061 19.9627799987793,86.3152860403061     C 19.9627799987793,86.3152860403061 19.9627799987793,94.0782063007355 19.9627799987793,94.0782063007355     Z     M 41.2499957084656,140.201068162918     C 41.2499957084656,140.201068162918 17.4951016902924,140.201068162918 17.4951016902924,140.201068162918     C 17.4951016902924,140.201068162918 17.4951016902924,115.774584531784 17.4951016902924,115.774584531784     C 17.4951016902924,115.774584531784 41.2499957084656,115.774584531784 41.2499957084656,115.774584531784     C 41.2499957084656,115.774584531784 41.2499957084656,140.201068162918 41.2499957084656,140.201068162918     Z     M 27.7219836711884,118.720803499222     C 27.7219836711884,118.720803499222 19.9627799987793,118.720803499222 19.9627799987793,118.720803499222     C 19.9627799987793,118.720803499222 19.9627799987793,126.483714342117 19.9627799987793,126.483714342117     C 19.9627799987793,126.483714342117 27.7219836711884,126.483714342117 27.7219836711884,126.483714342117     C 27.7219836711884,126.483714342117 27.7219836711884,118.720803499222 27.7219836711884,118.720803499222     Z     M 27.7219836711884,129.744827389717     C 27.7219836711884,129.744827389717 19.9627799987793,129.744827389717 19.9627799987793,129.744827389717     C 19.9627799987793,129.744827389717 19.9627799987793,137.507747650146 19.9627799987793,137.507747650146     C 19.9627799987793,137.507747650146 27.7219836711884,137.507747650146 27.7219836711884,137.507747650146     C 27.7219836711884,137.507747650146 27.7219836711884,129.744827389717 27.7219836711884,129.744827389717     Z     M 38.7406659126282,118.720803499222     C 38.7406659126282,118.720803499222 30.9814622402191,118.720803499222 30.9814622402191,118.720803499222     C 30.9814622402191,118.720803499222 30.9814622402191,126.483714342117 30.9814622402191,126.483714342117     C 30.9814622402191,126.483714342117 38.7406659126282,126.483714342117 38.7406659126282,126.483714342117     C 38.7406659126282,126.483714342117 38.7406659126282,118.720803499222 38.7406659126282,118.720803499222     Z     M 38.7406659126282,129.744827389717     C 38.7406659126282,129.744827389717 30.9814622402191,129.744827389717 30.9814622402191,129.744827389717     C 30.9814622402191,129.744827389717 30.9814622402191,137.507747650146 30.9814622402191,137.507747650146     C 30.9814622402191,137.507747650146 38.7406659126282,137.507747650146 38.7406659126282,137.507747650146     C 38.7406659126282,137.507747650146 38.7406659126282,129.744827389717 38.7406659126282,129.744827389717     Z     M 69.1811370849609,59.1873922348022     C 69.1811370849609,59.1873922348022 45.4262008666992,59.1873922348022 45.4262008666992,59.1873922348022     C 45.4262008666992,59.1873922348022 45.4262008666992,34.7607485055923 45.4262008666992,34.7607485055923     C 45.4262008666992,34.7607485055923 69.1811370849609,34.7607485055923 69.1811370849609,34.7607485055923     C 69.1811370849609,34.7607485055923 69.1811370849609,59.1873922348022 69.1811370849609,59.1873922348022     Z     M 55.6531672477722,37.7070145606995     C 55.6531672477722,37.7070145606995 47.8940057754517,37.7070145606995 47.8940057754517,37.7070145606995     C 47.8940057754517,37.7070145606995 47.8940057754517,45.4699348211288 47.8940057754517,45.4699348211288     C 47.8940057754517,45.4699348211288 55.6531672477722,45.4699348211288 55.6531672477722,45.4699348211288     C 55.6531672477722,45.4699348211288 55.6531672477722,37.7070145606995 55.6531672477722,37.7070145606995     Z     M 55.6531672477722,48.7310007810593     C 55.6531672477722,48.7310007810593 47.8940057754517,48.7310007810593 47.8940057754517,48.7310007810593     C 47.8940057754517,48.7310007810593 47.8940057754517,56.4939116239548 47.8940057754517,56.4939116239548     C 47.8940057754517,56.4939116239548 55.6531672477722,56.4939116239548 55.6531672477722,56.4939116239548     C 55.6531672477722,56.4939116239548 55.6531672477722,48.7310007810593 55.6531672477722,48.7310007810593     Z     M 66.6718916893005,37.7070145606995     C 66.6718916893005,37.7070145606995 58.91273021698,37.7070145606995 58.91273021698,37.7070145606995     C 58.91273021698,37.7070145606995 58.91273021698,45.4699348211288 58.91273021698,45.4699348211288     C 58.91273021698,45.4699348211288 66.6718916893005,45.4699348211288 66.6718916893005,45.4699348211288     C 66.6718916893005,45.4699348211288 66.6718916893005,37.7070145606995 66.6718916893005,37.7070145606995     Z     M 66.6718916893005,48.7310007810593     C 66.6718916893005,48.7310007810593 58.91273021698,48.7310007810593 58.91273021698,48.7310007810593     C 58.91273021698,48.7310007810593 58.91273021698,56.4939116239548 58.91273021698,56.4939116239548     C 58.91273021698,56.4939116239548 66.6718916893005,56.4939116239548 66.6718916893005,56.4939116239548     C 66.6718916893005,56.4939116239548 66.6718916893005,48.7310007810593 66.6718916893005,48.7310007810593     Z " fill-rule="nonzero" id="house-shape-PhotoshopSupply.com"/></svg>