<?xml version="1.0" encoding="utf-8"?>
<svg viewBox="0 0 1085.3713 296.94586" height="100" width="238.3713" id="svg2" version="1.1" xmlns="http://www.w3.org/2000/svg">
  <defs id="defs6">
    <clipPath id="clipPath14" clipPathUnits="userSpaceOnUse">
      <path id="path12" d="M 0,0 H 1920 V 1080 H 0 Z"/>
    </clipPath>
    <clipPath id="clipPath42" clipPathUnits="userSpaceOnUse">
      <path id="path40" d="M 0,1080 H 1920 V 0 H 0 Z"/>
    </clipPath>
  </defs>
  <g clip-path="url(#clipPath14)" transform="matrix(1.3333333,0,0,-1.3333333,-668.17667,898.00067)" id="g10">
    <g transform="translate(648.7334,552.0983)" id="g16">
      <path id="path18" style="fill:#7ed2ee;fill-opacity:1;fill-rule:nonzero;stroke:none" d="m 0,0 -19.544,-19.544 -19.544,-19.544 27.808,-27.808 h 52.13 v 26.046 81.7 z"/>
    </g>
    <g transform="translate(650.7497,632.2911)" id="g20">
      <path id="path22" style="fill:#2db0d7;fill-opacity:1;fill-rule:nonzero;stroke:none" d="M 0,0 -41.105,24.999 -82.209,0 l 41.104,-41.105 39.089,-39.088 40.85,-40.85 v 81.7 15.725 z"/>
    </g>
    <g transform="translate(609.6451,657.2905)" id="g24">
      <path id="path26" style="fill:#398cad;fill-opacity:1;fill-rule:nonzero;stroke:none" d="m 0,0 -41.105,-24.999 -38.833,-23.619 v -15.724 -81.7 l 40.85,40.85 L 0,-66.104 41.105,-24.999 Z"/>
    </g>
    <g transform="translate(590.1011,532.5542)" id="g28">
      <path id="path30" style="fill:#315a6f;fill-opacity:1;fill-rule:nonzero;stroke:none" d="m 0,0 -19.544,19.544 -40.85,40.85 v -81.7 -26.046 h 52.13 l 27.808,27.808 z"/>
    </g>
    <g transform="translate(581.8372,485.2021)" id="g32">
      <path id="path34" style="fill:#7ed2ee;fill-opacity:1;fill-rule:nonzero;stroke:none" d="M 0,0 H 55.616 L 27.808,27.808 Z"/>
    </g>
    <g id="g36">
      <g clip-path="url(#clipPath42)" id="g38">
        <g transform="translate(859.5285,529.7099)" id="g44">
          <path id="path46" style="fill:#315a6f;fill-opacity:1;fill-rule:nonzero;stroke:none" d="m 0,0 c 3.533,2.049 6.301,4.927 8.309,8.636 2.006,3.706 3.009,7.959 3.009,12.757 0,4.797 -1.003,9.049 -3.009,12.758 -2.008,3.706 -4.776,6.563 -8.309,8.57 -3.533,2.006 -7.523,3.011 -11.972,3.011 -4.449,0 -8.44,-1.005 -11.973,-3.011 -3.533,-2.007 -6.326,-4.864 -8.374,-8.57 -2.051,-3.709 -3.075,-7.961 -3.075,-12.758 0,-4.798 1.024,-9.051 3.075,-12.757 2.048,-3.709 4.841,-6.587 8.374,-8.636 3.533,-2.05 7.524,-3.075 11.973,-3.075 4.449,0 8.439,1.025 11.972,3.075 m -30.553,-9.486 c -5.495,3.052 -9.793,7.261 -12.888,12.626 -3.098,5.365 -4.645,11.449 -4.645,18.253 0,6.805 1.547,12.889 4.645,18.253 3.095,5.366 7.393,9.553 12.888,12.562 5.496,3.01 11.689,4.514 18.581,4.514 6.889,0 13.062,-1.504 18.515,-4.514 5.45,-3.009 9.725,-7.196 12.823,-12.562 C 22.461,34.282 24.01,28.198 24.01,21.393 24.01,14.589 22.461,8.505 19.366,3.14 16.268,-2.225 11.993,-6.434 6.543,-9.486 c -5.453,-3.055 -11.626,-4.58 -18.515,-4.58 -6.892,0 -13.085,1.525 -18.581,4.58"/>
        </g>
        <g transform="translate(859.5285,529.7099)" id="g48">
          <path id="path50" style="fill:none;stroke:#315a6f;stroke-width:6;stroke-linecap:butt;stroke-linejoin:miter;stroke-miterlimit:10;stroke-dasharray:none;stroke-opacity:1" d="m 0,0 c 3.533,2.049 6.301,4.927 8.309,8.636 2.006,3.706 3.009,7.959 3.009,12.757 0,4.797 -1.003,9.049 -3.009,12.758 -2.008,3.706 -4.776,6.563 -8.309,8.57 -3.533,2.006 -7.523,3.011 -11.972,3.011 -4.449,0 -8.44,-1.005 -11.973,-3.011 -3.533,-2.007 -6.326,-4.864 -8.374,-8.57 -2.051,-3.709 -3.075,-7.961 -3.075,-12.758 0,-4.798 1.024,-9.051 3.075,-12.757 2.048,-3.709 4.841,-6.587 8.374,-8.636 3.533,-2.05 7.524,-3.075 11.973,-3.075 4.449,0 8.439,1.025 11.972,3.075 z m -30.553,-9.486 c -5.495,3.052 -9.793,7.261 -12.888,12.626 -3.098,5.365 -4.645,11.449 -4.645,18.253 0,6.805 1.547,12.889 4.645,18.253 3.095,5.366 7.393,9.553 12.888,12.562 5.496,3.01 11.689,4.514 18.581,4.514 6.889,0 13.062,-1.504 18.515,-4.514 5.45,-3.009 9.725,-7.196 12.823,-12.562 C 22.461,34.282 24.01,28.198 24.01,21.393 24.01,14.589 22.461,8.505 19.366,3.14 16.268,-2.225 11.993,-6.434 6.543,-9.486 c -5.453,-3.055 -11.626,-4.58 -18.515,-4.58 -6.892,0 -13.085,1.525 -18.581,4.58 z"/>
        </g>
        <g transform="translate(917.4628,583.2917)" id="g52">
          <path id="path54" style="fill:#315a6f;fill-opacity:1;fill-rule:nonzero;stroke:none" d="M 0,0 C 4.273,2.094 9.464,3.141 15.571,3.141 V -9.028 c -0.699,0.086 -1.658,0.131 -2.879,0.131 -6.804,0 -12.148,-2.028 -16.029,-6.085 -3.882,-4.056 -5.822,-9.836 -5.822,-17.337 V -66.863 H -21.721 V 2.486 H -9.683 V -9.159 C -7.503,-5.148 -4.275,-2.094 0,0"/>
        </g>
        <g transform="translate(917.4628,583.2917)" id="g56">
          <path id="path58" style="fill:none;stroke:#315a6f;stroke-width:6;stroke-linecap:butt;stroke-linejoin:miter;stroke-miterlimit:10;stroke-dasharray:none;stroke-opacity:1" d="M 0,0 C 4.273,2.094 9.464,3.141 15.571,3.141 V -9.028 c -0.699,0.086 -1.658,0.131 -2.879,0.131 -6.804,0 -12.148,-2.028 -16.029,-6.085 -3.882,-4.056 -5.822,-9.836 -5.822,-17.337 V -66.863 H -21.721 V 2.486 H -9.683 V -9.159 C -7.503,-5.148 -4.275,-2.094 0,0 Z"/>
        </g>
        <g transform="translate(1027.0624,608.0222)" id="g60">
          <path id="path62" style="fill:#2db0d7;fill-opacity:1;fill-rule:nonzero;stroke:none" d="m 0,0 v -91.593 h -13.084 v 40.824 H -65.685 V -91.593 H -78.77 V 0 h 13.085 v -39.385 h 52.601 V 0 Z"/>
        </g>
        <g transform="translate(1027.0624,608.0222)" id="g64">
          <path id="path66" style="fill:none;stroke:#2db0d7;stroke-width:6;stroke-linecap:butt;stroke-linejoin:miter;stroke-miterlimit:10;stroke-dasharray:none;stroke-opacity:1" d="m 0,0 v -91.593 h -13.084 v 40.824 H -65.685 V -91.593 H -78.77 V 0 h 13.085 v -39.385 h 52.601 V 0 Z"/>
        </g>
        <g transform="translate(1089.255,529.7099)" id="g68">
          <path id="path70" style="fill:#2db0d7;fill-opacity:1;fill-rule:nonzero;stroke:none" d="m 0,0 c 3.533,2.049 6.301,4.927 8.309,8.636 2.005,3.706 3.009,7.959 3.009,12.757 0,4.797 -1.004,9.049 -3.009,12.758 -2.008,3.706 -4.776,6.563 -8.309,8.57 -3.533,2.006 -7.523,3.011 -11.973,3.011 -4.448,0 -8.439,-1.005 -11.972,-3.011 -3.533,-2.007 -6.326,-4.864 -8.374,-8.57 -2.051,-3.709 -3.075,-7.961 -3.075,-12.758 0,-4.798 1.024,-9.051 3.075,-12.757 2.048,-3.709 4.841,-6.587 8.374,-8.636 3.533,-2.05 7.524,-3.075 11.972,-3.075 4.45,0 8.44,1.025 11.973,3.075 m -30.553,-9.486 c -5.496,3.052 -9.793,7.261 -12.888,12.626 -3.098,5.365 -4.645,11.449 -4.645,18.253 0,6.805 1.547,12.889 4.645,18.253 3.095,5.366 7.392,9.553 12.888,12.562 5.496,3.01 11.688,4.514 18.58,4.514 6.89,0 13.062,-1.504 18.515,-4.514 5.451,-3.009 9.726,-7.196 12.823,-12.562 C 22.461,34.282 24.01,28.198 24.01,21.393 24.01,14.589 22.461,8.505 19.365,3.14 16.268,-2.225 11.993,-6.434 6.542,-9.486 c -5.453,-3.055 -11.625,-4.58 -18.515,-4.58 -6.892,0 -13.084,1.525 -18.58,4.58"/>
        </g>
        <g transform="translate(1089.255,529.7099)" id="g72">
          <path id="path74" style="fill:none;stroke:#2db0d7;stroke-width:6;stroke-linecap:butt;stroke-linejoin:miter;stroke-miterlimit:10;stroke-dasharray:none;stroke-opacity:1" d="m 0,0 c 3.533,2.049 6.301,4.927 8.309,8.636 2.005,3.706 3.009,7.959 3.009,12.757 0,4.797 -1.004,9.049 -3.009,12.758 -2.008,3.706 -4.776,6.563 -8.309,8.57 -3.533,2.006 -7.523,3.011 -11.973,3.011 -4.448,0 -8.439,-1.005 -11.972,-3.011 -3.533,-2.007 -6.326,-4.864 -8.374,-8.57 -2.051,-3.709 -3.075,-7.961 -3.075,-12.758 0,-4.798 1.024,-9.051 3.075,-12.757 2.048,-3.709 4.841,-6.587 8.374,-8.636 3.533,-2.05 7.524,-3.075 11.972,-3.075 4.45,0 8.44,1.025 11.973,3.075 z m -30.553,-9.486 c -5.496,3.052 -9.793,7.261 -12.888,12.626 -3.098,5.365 -4.645,11.449 -4.645,18.253 0,6.805 1.547,12.889 4.645,18.253 3.095,5.366 7.392,9.553 12.888,12.562 5.496,3.01 11.688,4.514 18.58,4.514 6.89,0 13.062,-1.504 18.515,-4.514 5.451,-3.009 9.726,-7.196 12.823,-12.562 C 22.461,34.282 24.01,28.198 24.01,21.393 24.01,14.589 22.461,8.505 19.365,3.14 16.268,-2.225 11.993,-6.434 6.542,-9.486 c -5.453,-3.055 -11.625,-4.58 -18.515,-4.58 -6.892,0 -13.084,1.525 -18.58,4.58 z"/>
        </g>
        <g transform="translate(1133.6248,517.9337)" id="g76">
          <path id="path78" style="fill:#2db0d7;fill-opacity:1;fill-rule:nonzero;stroke:none" d="m 0,0 c -5.234,1.525 -9.335,3.467 -12.3,5.823 l 5.234,9.944 C -4.014,13.586 -0.307,11.842 4.056,10.533 8.417,9.225 12.823,8.57 17.272,8.57 c 10.99,0 16.487,3.141 16.487,9.422 0,2.093 -0.742,3.75 -2.225,4.972 -1.484,1.22 -3.336,2.114 -5.561,2.682 -2.225,0.566 -5.387,1.199 -9.486,1.897 -5.584,0.871 -10.141,1.875 -13.674,3.01 -3.533,1.132 -6.564,3.052 -9.094,5.757 -2.531,2.703 -3.794,6.497 -3.794,11.384 0,6.28 2.616,11.318 7.85,15.113 5.234,3.794 12.255,5.692 21.067,5.692 4.622,0 9.245,-0.569 13.87,-1.702 4.622,-1.134 8.417,-2.661 11.384,-4.579 l -5.365,-9.944 c -5.672,3.664 -12.345,5.495 -20.02,5.495 -5.322,0 -9.378,-0.873 -12.169,-2.617 -2.793,-1.746 -4.187,-4.056 -4.187,-6.935 0,-2.269 0.786,-4.056 2.356,-5.365 1.57,-1.308 3.51,-2.269 5.822,-2.878 2.311,-0.611 5.561,-1.309 9.748,-2.094 5.582,-0.961 10.096,-1.985 13.543,-3.075 3.445,-1.091 6.389,-2.943 8.832,-5.56 2.442,-2.618 3.664,-6.281 3.664,-10.992 0,-6.28 -2.683,-11.275 -8.047,-14.982 C 32.908,-0.437 25.601,-2.289 16.356,-2.289 10.684,-2.289 5.234,-1.525 0,0"/>
        </g>
        <g transform="translate(1133.6248,517.9337)" id="g80">
          <path id="path82" style="fill:none;stroke:#2db0d7;stroke-width:6;stroke-linecap:butt;stroke-linejoin:miter;stroke-miterlimit:10;stroke-dasharray:none;stroke-opacity:1" d="m 0,0 c -5.234,1.525 -9.335,3.467 -12.3,5.823 l 5.234,9.944 C -4.014,13.586 -0.307,11.842 4.056,10.533 8.417,9.225 12.823,8.57 17.272,8.57 c 10.99,0 16.487,3.141 16.487,9.422 0,2.093 -0.742,3.75 -2.225,4.972 -1.484,1.22 -3.336,2.114 -5.561,2.682 -2.225,0.566 -5.387,1.199 -9.486,1.897 -5.584,0.871 -10.141,1.875 -13.674,3.01 -3.533,1.132 -6.564,3.052 -9.094,5.757 -2.531,2.703 -3.794,6.497 -3.794,11.384 0,6.28 2.616,11.318 7.85,15.113 5.234,3.794 12.255,5.692 21.067,5.692 4.622,0 9.245,-0.569 13.87,-1.702 4.622,-1.134 8.417,-2.661 11.384,-4.579 l -5.365,-9.944 c -5.672,3.664 -12.345,5.495 -20.02,5.495 -5.322,0 -9.378,-0.873 -12.169,-2.617 -2.793,-1.746 -4.187,-4.056 -4.187,-6.935 0,-2.269 0.786,-4.056 2.356,-5.365 1.57,-1.308 3.51,-2.269 5.822,-2.878 2.311,-0.611 5.561,-1.309 9.748,-2.094 5.582,-0.961 10.096,-1.985 13.543,-3.075 3.445,-1.091 6.389,-2.943 8.832,-5.56 2.442,-2.618 3.664,-6.281 3.664,-10.992 0,-6.28 -2.683,-11.275 -8.047,-14.982 C 32.908,-0.437 25.601,-2.289 16.356,-2.289 10.684,-2.289 5.234,-1.525 0,0 Z"/>
        </g>
        <g transform="translate(1228.2133,520.4852)" id="g84">
          <path id="path86" style="fill:#2db0d7;fill-opacity:1;fill-rule:nonzero;stroke:none" d="m 0,0 c -1.832,-1.57 -4.101,-2.77 -6.803,-3.598 -2.706,-0.828 -5.497,-1.243 -8.375,-1.243 -6.98,0 -12.387,1.874 -16.225,5.627 -3.84,3.749 -5.757,9.114 -5.757,16.093 v 63.592 h 12.561 V 65.293 H -4.711 V 54.956 H -24.599 V 17.403 c 0,-3.752 0.937,-6.631 2.813,-8.636 1.875,-2.008 4.557,-3.01 8.047,-3.01 3.838,0 7.109,1.09 9.814,3.271 z"/>
        </g>
        <g transform="translate(1228.2133,520.4852)" id="g88">
          <path id="path90" style="fill:none;stroke:#2db0d7;stroke-width:6;stroke-linecap:butt;stroke-linejoin:miter;stroke-miterlimit:10;stroke-dasharray:none;stroke-opacity:1" d="m 0,0 c -1.832,-1.57 -4.101,-2.77 -6.803,-3.598 -2.706,-0.828 -5.497,-1.243 -8.375,-1.243 -6.98,0 -12.387,1.874 -16.225,5.627 -3.84,3.749 -5.757,9.114 -5.757,16.093 v 63.592 h 12.561 V 65.293 H -4.711 V 54.956 H -24.599 V 17.403 c 0,-3.752 0.937,-6.631 2.813,-8.636 1.875,-2.008 4.557,-3.01 8.047,-3.01 3.838,0 7.109,1.09 9.814,3.271 z"/>
        </g>
        <g transform="translate(1250.5616,517.9337)" id="g92">
          <path id="path94" style="fill:#2db0d7;fill-opacity:1;fill-rule:nonzero;stroke:none" d="m 0,0 c -5.234,1.525 -9.335,3.467 -12.3,5.823 l 5.234,9.944 C -4.014,13.586 -0.307,11.842 4.056,10.533 8.417,9.225 12.823,8.57 17.272,8.57 c 10.99,0 16.487,3.141 16.487,9.422 0,2.093 -0.743,3.75 -2.225,4.972 -1.484,1.22 -3.336,2.114 -5.561,2.682 -2.225,0.566 -5.387,1.199 -9.486,1.897 -5.584,0.871 -10.141,1.875 -13.674,3.01 -3.533,1.132 -6.565,3.052 -9.094,5.757 -2.531,2.703 -3.794,6.497 -3.794,11.384 0,6.28 2.616,11.318 7.85,15.113 5.234,3.794 12.255,5.692 21.067,5.692 4.622,0 9.245,-0.569 13.87,-1.702 4.622,-1.134 8.417,-2.661 11.384,-4.579 l -5.365,-9.944 c -5.672,3.664 -12.345,5.495 -20.02,5.495 -5.322,0 -9.378,-0.873 -12.169,-2.617 -2.793,-1.746 -4.187,-4.056 -4.187,-6.935 0,-2.269 0.785,-4.056 2.356,-5.365 1.57,-1.308 3.509,-2.269 5.822,-2.878 2.311,-0.611 5.561,-1.309 9.748,-2.094 5.581,-0.961 10.095,-1.985 13.543,-3.075 3.444,-1.091 6.389,-2.943 8.832,-5.56 2.441,-2.618 3.664,-6.281 3.664,-10.992 0,-6.28 -2.683,-11.275 -8.047,-14.982 C 32.907,-0.437 25.601,-2.289 16.356,-2.289 10.684,-2.289 5.234,-1.525 0,0"/>
        </g>
        <g transform="translate(1250.5616,517.9337)" id="g96">
          <path id="path98" style="fill:none;stroke:#2db0d7;stroke-width:6;stroke-linecap:butt;stroke-linejoin:miter;stroke-miterlimit:10;stroke-dasharray:none;stroke-opacity:1" d="m 0,0 c -5.234,1.525 -9.335,3.467 -12.3,5.823 l 5.234,9.944 C -4.014,13.586 -0.307,11.842 4.056,10.533 8.417,9.225 12.823,8.57 17.272,8.57 c 10.99,0 16.487,3.141 16.487,9.422 0,2.093 -0.743,3.75 -2.225,4.972 -1.484,1.22 -3.336,2.114 -5.561,2.682 -2.225,0.566 -5.387,1.199 -9.486,1.897 -5.584,0.871 -10.141,1.875 -13.674,3.01 -3.533,1.132 -6.565,3.052 -9.094,5.757 -2.531,2.703 -3.794,6.497 -3.794,11.384 0,6.28 2.616,11.318 7.85,15.113 5.234,3.794 12.255,5.692 21.067,5.692 4.622,0 9.245,-0.569 13.87,-1.702 4.622,-1.134 8.417,-2.661 11.384,-4.579 l -5.365,-9.944 c -5.672,3.664 -12.345,5.495 -20.02,5.495 -5.322,0 -9.378,-0.873 -12.169,-2.617 -2.793,-1.746 -4.187,-4.056 -4.187,-6.935 0,-2.269 0.785,-4.056 2.356,-5.365 1.57,-1.308 3.509,-2.269 5.822,-2.878 2.311,-0.611 5.561,-1.309 9.748,-2.094 5.581,-0.961 10.095,-1.985 13.543,-3.075 3.444,-1.091 6.389,-2.943 8.832,-5.56 2.441,-2.618 3.664,-6.281 3.664,-10.992 0,-6.28 -2.683,-11.275 -8.047,-14.982 C 32.907,-0.437 25.601,-2.289 16.356,-2.289 10.684,-2.289 5.234,-1.525 0,0 Z"/>
        </g>
        <g transform="translate(911.569,487.2159)" id="g100"/>
        <g transform="translate(804.0202,596.6249)" id="g172">
          <path id="path174" style="fill:#315a6f;fill-opacity:1;fill-rule:nonzero;stroke:none" d="m 0,0 v 11.795 h -66.299 v -92.776 h 13.175 v 37.004 h 47.367 v 11.795 H -53.124 V 0 Z"/>
        </g>
        <g transform="translate(804.0202,596.6249)" id="g176">
          <path id="path178" style="fill:none;stroke:#315a6f;stroke-width:6;stroke-linecap:butt;stroke-linejoin:miter;stroke-miterlimit:10;stroke-dasharray:none;stroke-opacity:1" d="m 0,0 v 11.795 h -66.299 v -92.776 h 13.175 v 37.004 h 47.367 v 11.795 H -53.124 V 0 Z"/>
        </g>
        <path id="path180" style="fill:#398cad;fill-opacity:1;fill-rule:nonzero;stroke:none" d="m 570.806,608.42 h -25.613 v 42.323 h 25.613 z"/>
      </g>
    </g>
  </g>
</svg>