<?xml version="1.0" ?><!DOCTYPE svg  PUBLIC '-//W3C//DTD SVG 1.1//EN'  'http://www.w3.org/Graphics/SVG/1.1/DTD/svg11.dtd'><svg enable-background="new 0 0 48 48" height="48px" version="1.1" viewBox="0 0 48 48" width="48px" xml:space="preserve" xmlns="http://www.w3.org/2000/svg" xmlns:xlink="http://www.w3.org/1999/xlink"><g id="Layer_3"><g><circle cx="2.206" cy="16.359" fill="#241F20" r="2.132"/><circle cx="9.689" cy="12.137" fill="#241F20" r="3.428"/><circle cx="8.603" cy="6.033" fill="#241F20" r="1.589"/><path d="M47.926,26.079h-1.424h-1.249H2.746H2.12H0.074c1.702,5.333,5.146,9.879,9.651,13.002L5.25,43.556h3.552    l3.113-3.112c3.587,1.976,7.7,3.112,12.085,3.112c4.368,0,8.468-1.127,12.045-3.09l3.09,3.09h3.552l-4.45-4.448    C42.76,35.983,46.219,31.427,47.926,26.079z M24,41.044c-8.876,0-16.523-5.133-20.219-12.578h40.437    C40.522,35.911,32.876,41.044,24,41.044z" fill="#241F20"/><path d="M40.326,7.27c2.774,0,5.024,2.25,5.024,5.023v8.71H0.138v3.715h47.724v-3.297v-0.418v-8.71    c0-0.205-0.015-0.406-0.031-0.607c-0.002-0.062-0.003-0.104-0.003-0.104l-0.002-0.001c-0.36-3.826-3.578-6.822-7.5-6.822    c-4.161,0-7.535,3.374-7.535,7.535h2.512C35.303,9.52,37.553,7.27,40.326,7.27z" fill="#241F20"/></g></g></svg>