<?xml version="1.0" ?><!DOCTYPE svg  PUBLIC '-//W3C//DTD SVG 1.1//EN'  'http://www.w3.org/Graphics/SVG/1.1/DTD/svg11.dtd'><svg enable-background="new 0 0 48 48" height="48px" version="1.1" viewBox="0 0 48 48" width="48px" xml:space="preserve" xmlns="http://www.w3.org/2000/svg" xmlns:xlink="http://www.w3.org/1999/xlink"><g id="Layer_4"><g><polygon fill="#241F20" points="46.404,17.169 1.599,17.169 0.198,17.169 0.198,19.971 1.599,19.971 1.599,20.408 1.599,21.37     1.599,47.974 4.399,47.974 4.399,21.37 46.404,21.37 46.404,19.971 47.803,19.971 47.803,17.169   "/><path d="M46.398,23.603H29.656v6.111h16.742V23.603z M38.062,28.057c-0.773,0-1.398-0.624-1.398-1.398    c0-0.773,0.625-1.4,1.398-1.4c0.775,0,1.4,0.627,1.4,1.4C39.463,27.433,38.838,28.057,38.062,28.057z" fill="#241F20"/><path d="M29.693,38.216h16.738V31.87H29.693V38.216z M38.062,33.644c0.775,0,1.4,0.625,1.4,1.399    s-0.625,1.401-1.4,1.401c-0.773,0-1.398-0.627-1.398-1.401S37.289,33.644,38.062,33.644z" fill="#241F20"/><path d="M29.656,47.974h16.742v-7.614H29.656V47.974z M38.062,42.767c0.775,0,1.4,0.627,1.4,1.4    c0,0.775-0.625,1.399-1.4,1.399c-0.773,0-1.398-0.624-1.398-1.399C36.664,43.394,37.289,42.767,38.062,42.767z" fill="#241F20"/><path d="M8.122,14.453h0.755h0.158h16.856h0.482h0.432h1.117h0.01v-1.127v-0.146V1.126V0h-0.256h-0.871h-0.914    H9.035H8.129H8.122h-1.12v1.042C6.999,1.071,6.993,1.098,6.993,1.126v11.519v0.681v1.127h0.009H8.122z M9.035,2.032h16.856v10.08    H9.035V2.032z" fill="#241F20"/></g></g></svg>