<?xml version="1.0" ?><!DOCTYPE svg  PUBLIC '-//W3C//DTD SVG 1.1//EN'  'http://www.w3.org/Graphics/SVG/1.1/DTD/svg11.dtd'><svg enable-background="new 0 0 48 48" height="48px" version="1.1" viewBox="0 0 48 48" width="48px" xml:space="preserve" xmlns="http://www.w3.org/2000/svg" xmlns:xlink="http://www.w3.org/1999/xlink"><g id="Layer_5"><g><path d="M36.727,22.634H25.453v-0.042v-7.692v-3.581H14.18V0.044H2.906H0v45.094v2.816h2.906H48v-1.189v-1.627    v-1.322v-9.908H36.727V22.634z M39.545,36.729h2.173h3.464v2.795v1.504v1.336v0.014v1.439v1.322H2.906V2.89H5.13h0.595h5.637v4.2    v1.409v5.637h5.637h2.642h2.995v3.523v2.113v5.638h5.592h5.637v5.637v5.682H39.545z" fill="#241F20"/><polygon fill="#241F20" points="37.645,19.385 48,21.024 46.146,10.886 42.896,14.134 28.808,0.044 24.801,0.044 40.895,16.137       "/></g></g></svg>