<?xml version="1.0" ?><!DOCTYPE svg  PUBLIC '-//W3C//DTD SVG 1.1//EN'  'http://www.w3.org/Graphics/SVG/1.1/DTD/svg11.dtd'><svg enable-background="new 0 0 48 48" height="48px" version="1.1" viewBox="0 0 48 48" width="48px" xml:space="preserve" xmlns="http://www.w3.org/2000/svg" xmlns:xlink="http://www.w3.org/1999/xlink"><g id="Layer_5"><path d="M32.24,1.284c-1.674,0-3.107,0.998-3.762,2.428h-3.184c-0.598-1.77-2.255-3.05-4.225-3.05   c-1.2,0-2.283,0.478-3.087,1.244H6.817v3.517h6.438c-3.145,1.98-5.74,4.752-7.483,8.053l3.675,1.499   c1.789-3.214,4.589-5.77,7.957-7.296c0.468,0.684,1.117,1.228,1.885,1.563v1.419c-4.057,0.795-7.118,4.366-7.118,8.653v28.646   h17.643V19.314c0-4.239-2.99-7.777-6.979-8.624V9.252c0.968-0.423,1.759-1.175,2.23-2.117h3.414   c0.654,1.428,2.088,2.427,3.762,2.427l9.988,0.933V0.039L32.24,1.284z M27.693,19.366c0,0.051-0.014,0.097-0.016,0.146v26.086   H14.264V19.366c0-3.707,3.007-6.715,6.715-6.715C24.688,12.651,27.693,15.659,27.693,19.366z M21.007,7.107   c-1.134,0-2.054-0.92-2.054-2.054s0.92-2.053,2.054-2.053S23.06,3.92,23.06,5.054S22.141,7.107,21.007,7.107z M40.102,8.411   l-7.846-0.763V7.638c-1.176-0.123-2.098-1.107-2.098-2.316c0-1.21,0.922-2.192,2.098-2.317V2.993l7.846-0.911V8.411z" fill="#241F20"/></g></svg>