<?xml version="1.0" ?><!DOCTYPE svg  PUBLIC '-//W3C//DTD SVG 1.1//EN'  'http://www.w3.org/Graphics/SVG/1.1/DTD/svg11.dtd'><svg enable-background="new 0 0 48 48" height="48px" version="1.1" viewBox="0 0 48 48" width="48px" xml:space="preserve" xmlns="http://www.w3.org/2000/svg" xmlns:xlink="http://www.w3.org/1999/xlink"><g id="Layer_5"><g><path d="M30.989,28.479c-0.004-0.007-0.008-0.016-0.014-0.023v0.006c-0.293-0.348-0.766-0.854-1.546-1.564    c0.651,1.297,1.441,4.028,1.546,5.599v0.507c0,0.079-0.014,0.157-0.025,0.229c-0.004,0.036-0.01,0.073-0.019,0.104    c-0.152,0.631-0.717,1.104-1.393,1.104c-0.795,0-1.438-0.643-1.438-1.437v-0.544c-0.201-3.571-1.007-5.798-2.016-7.567    c-0.267-0.431-1.581-2.493-2.727-3.407c-0.002-0.001-0.003-0.003-0.006-0.005c0.209,1.205,0.318,2.37,0.348,3.466    c0.002,0,0.004-0.002,0.005-0.002c0.431,7.14-1.38,8.831-1.38,8.831l-0.008-0.01c-0.252,0.397-0.67,0.675-1.176,0.675    c-0.491,0-0.921-0.252-1.177-0.628l-0.002,0.001c0,0-0.007-0.009-0.009-0.013c-0.002-0.003-0.005-0.006-0.007-0.01    c-0.072-0.104-0.486-0.756-0.655-1.843c-0.003-0.012,0-0.019-0.003-0.03c-0.191-1.067-0.059-2.057,0.132-2.816    c0.002-0.013,0-0.019,0.002-0.032c0.006-0.022,0.015-0.047,0.021-0.07c0.014-0.051,0.027-0.098,0.042-0.147    c0.169-0.6,0.427-1.245,0.641-1.736c0.022-0.053,0.049-0.111,0.074-0.165c0.089-0.198,0.16-0.351,0.211-0.454    c0.02-0.038,0.033-0.074,0.054-0.113c0.006-0.012,0.017-0.035,0.017-0.035l0.001,0.003c0.244-0.462,0.559-0.965,0.972-1.502    c-1.944,1.031-3.279,2.222-4.208,3.357c-0.644,0.748-1.164,1.597-1.534,2.527c-0.461,1.11-0.528,1.875-0.528,1.875l0.011-0.015    c-0.074,0.466-0.125,0.94-0.125,1.428c0,4.931,3.997,8.929,8.927,8.929s8.927-3.998,8.927-8.929c0-1.84-0.561-3.548-1.516-4.969    C31.405,29.04,31.312,28.863,30.989,28.479z" fill="#241F20"/><path d="M48,5.053H0v12.631h3.79v25.263h2.526V17.684h35.369v25.263h2.526V17.684H48V5.053z M45.474,15.158h-1.263    H3.79H2.526V7.579h42.947V15.158z" fill="#241F20"/></g></g></svg>