<?xml version="1.0" ?><!DOCTYPE svg  PUBLIC '-//W3C//DTD SVG 1.1//EN'  'http://www.w3.org/Graphics/SVG/1.1/DTD/svg11.dtd'><svg enable-background="new 0 0 48 48" height="48px" version="1.1" viewBox="0 0 48 48" width="48px" xml:space="preserve" xmlns="http://www.w3.org/2000/svg" xmlns:xlink="http://www.w3.org/1999/xlink"><g id="Layer_3"><g><path d="M33.518,10.904h0.797c1.088,0,1.926-0.25,2.516-0.75c0.59-0.5,0.883-1.221,0.883-2.165    c0-0.908-0.275-1.59-0.828-2.048c-0.555-0.457-1.363-0.687-2.426-0.687h-2.801v8.767h1.859V10.904z M33.518,6.779h0.844    c0.51,0,0.883,0.104,1.119,0.312c0.238,0.208,0.357,0.529,0.357,0.965c0,0.431-0.141,0.76-0.426,0.986    c-0.285,0.226-0.713,0.339-1.283,0.339h-0.611V6.779z" fill="#241F20"/><path d="M44.088,0.238H25.285V19.04h18.803V0.238z M41.58,16.533H27.793V2.745H41.58V16.533z" fill="#241F20"/><path d="M45.857,21.81h-0.094c-0.037-0.002-0.076-0.012-0.115-0.012h-1.693c-0.039,0-0.076,0.01-0.115,0.012    h-1.141h-1.1v2.344v0.573h-3.168h-0.338H9.386l2.538-6.08l2.943-6.931l0.101-0.227h7.798V8.983h-9.655v0.048l-1.18,2.713    l-5.53,12.405c-0.001-0.134-0.019-0.262-0.04-0.389h0.004v-1.962H5.068H4.045H2.352h-2.356v5.126h4.889l0.191,0.029v0.545v0.494    v8.785v0.221v2.486v0.607v2.215h1.657v3.209v1.244v1.002h7.122v-2.246H13.85v-3.066h20.333v3.771v0.539v1.002h7.119V46.76v-0.539    V42.27c0.004-0.002,0.006-0.004,0.008-0.004h1.467v-2.174v-0.334v-2.76v-0.221v-8.471v-0.809v-0.521h5.227V21.81H45.857z     M40.221,39.822H7.63V27.287h32.59V39.822z" fill="#241F20"/></g></g></svg>