<?xml version="1.0" ?><!DOCTYPE svg  PUBLIC '-//W3C//DTD SVG 1.1//EN'  'http://www.w3.org/Graphics/SVG/1.1/DTD/svg11.dtd'><svg enable-background="new 0 0 48 48" height="48px" version="1.1" viewBox="0 0 48 48" width="48px" xml:space="preserve" xmlns="http://www.w3.org/2000/svg" xmlns:xlink="http://www.w3.org/1999/xlink"><g id="Layer_3"><g><path d="M23.999,41.685c5.581,0,10.105-4.524,10.105-10.105S29.58,21.474,23.999,21.474    s-10.104,4.524-10.104,10.105S18.418,41.685,23.999,41.685z M23.999,24c4.185,0,7.579,3.391,7.579,7.579    c0,4.185-3.395,7.579-7.579,7.579c-4.186,0-7.579-3.395-7.579-7.579C16.42,27.392,19.813,24,23.999,24z" fill="#241F20"/><path d="M8.842,0v48h30.316V0H8.842z M36.632,45.474H11.368V2.526h25.264V45.474z" fill="#241F20"/><path d="M23.999,17.684c3.489,0,6.317-2.827,6.317-6.316c0-3.488-2.828-6.315-6.317-6.315    c-3.488,0-6.315,2.828-6.315,6.315C17.684,14.857,20.511,17.684,23.999,17.684z M23.999,7.579c2.095,0,3.79,1.697,3.79,3.79    s-1.695,3.79-3.79,3.79c-2.093,0-3.789-1.698-3.789-3.79S21.906,7.579,23.999,7.579z" fill="#241F20"/><path d="M23.999,36.644c2.799,0,5.067-2.268,5.067-5.064c0-2.798-2.269-5.065-5.067-5.065    c-2.797,0-5.065,2.268-5.065,5.065C18.934,34.376,21.202,36.644,23.999,36.644z M23.999,29.053c1.396,0,2.527,1.133,2.527,2.526    c0,1.396-1.131,2.526-2.527,2.526c-1.395,0-2.526-1.13-2.526-2.526C21.473,30.186,22.604,29.053,23.999,29.053z" fill="#241F20"/></g></g></svg>