<?xml version="1.0" ?><!DOCTYPE svg  PUBLIC '-//W3C//DTD SVG 1.1//EN'  'http://www.w3.org/Graphics/SVG/1.1/DTD/svg11.dtd'><svg enable-background="new 0 0 48 48" height="48px" version="1.1" viewBox="0 0 48 48" width="48px" xml:space="preserve" xmlns="http://www.w3.org/2000/svg" xmlns:xlink="http://www.w3.org/1999/xlink"><g id="Layer_4"><g><path d="M14.438,27.857c-5.564,0-10.075,4.512-10.075,10.074c0,5.564,4.511,10.076,10.075,10.076    s10.076-4.512,10.076-10.076C24.515,32.369,20.003,27.857,14.438,27.857z M14.438,45.489c-4.173,0-7.556-3.383-7.556-7.558    c0-0.137,0.013-0.271,0.021-0.406c3.338,1.915,6.139,4.645,8.13,7.934C14.837,45.475,14.64,45.489,14.438,45.489z M17.552,44.812    c-2.354-4.162-5.847-7.573-10.071-9.83c0.848-1.998,2.533-3.552,4.613-4.229c1.726,4.589,4.734,8.539,8.611,11.404    C19.926,43.311,18.833,44.231,17.552,44.812z M21.751,39.81c-3.132-2.437-5.584-5.686-7.094-9.423    c4.071,0.117,7.338,3.448,7.338,7.545C21.995,38.582,21.905,39.207,21.751,39.81z" fill="#241F20"/><path d="M36.804,26.675l-0.008,0.001c3.716-3.393,5.042-8.867,3.001-13.71l0.02-0.01l-2.538-5.447l-0.027,0.011    c-0.066-0.165-0.124-0.332-0.2-0.495c-2.84-6.093-10.084-8.73-16.178-5.888c-6.092,2.841-8.729,10.084-5.887,16.178    c0.075,0.163,0.166,0.314,0.248,0.472l-0.023,0.012l2.54,5.447l0.021-0.01c2.416,4.714,7.522,7.222,12.546,6.502l3.928,2.773    l2.069-0.965L36.804,26.675z M32.707,26.513c-4.867,2.27-10.649,0.172-12.93-4.688l-0.003,0.001l-2.582-5.541    c-2.273-4.875-0.164-10.668,4.711-12.941c4.81-2.244,10.509-0.214,12.844,4.524l0.007-0.003l0.069,0.146    c0.007,0.015,0.015,0.028,0.021,0.042c0.005,0.009,0.008,0.018,0.01,0.027l2.549,5.463c0.005,0.009,0.01,0.018,0.015,0.026    c0.005,0.015,0.01,0.029,0.017,0.044l0.116,0.25l-0.013,0.005C39.595,18.683,37.481,24.285,32.707,26.513z" fill="#241F20"/><polygon fill="#241F20" points="37.482,33.784 35.27,34.796 41.43,48.008 43.637,46.98   "/></g></g></svg>