<?xml version="1.0" ?><!DOCTYPE svg  PUBLIC '-//W3C//DTD SVG 1.1//EN'  'http://www.w3.org/Graphics/SVG/1.1/DTD/svg11.dtd'><svg enable-background="new 0 0 48 48" height="48px" version="1.1" viewBox="0 0 48 48" width="48px" xml:space="preserve" xmlns="http://www.w3.org/2000/svg" xmlns:xlink="http://www.w3.org/1999/xlink"><g id="Layer_4"><g><circle cx="15.737" cy="6.948" fill="#241F20" r="1.895"/><circle cx="22.053" cy="6.948" fill="#241F20" r="1.895"/><path d="M24,22.737c-4.884,0-8.842,3.958-8.842,8.842s3.958,8.842,8.842,8.842c4.884,0,8.841-3.958,8.841-8.842    S28.885,22.737,24,22.737z M23.948,37.895c-3.488,0-6.316-2.827-6.316-6.315s2.828-6.316,6.316-6.316    c3.49,0,6.316,2.828,6.316,6.316S27.438,37.895,23.948,37.895z" fill="#241F20"/><path d="M8.842,43.316v2.157v1.315v0.422V48h30.316v-0.264v-0.947v-1.315v-2.157V15.158H8.842V43.316z     M11.369,43.316V17.684h25.262v25.632v2.157H11.369V43.316z" fill="#241F20"/><path d="M8.842,0v1.263v1.263v1.21v3v7.158h30.316V6.316V3.737v-1.21V0.79V0H8.842z M36.631,3.737v2.579v5H11.369    V6.737v-3v-1.21h25.262V3.737z" fill="#241F20"/></g></g></svg>