<?xml version="1.0" ?><!DOCTYPE svg  PUBLIC '-//W3C//DTD SVG 1.1//EN'  'http://www.w3.org/Graphics/SVG/1.1/DTD/svg11.dtd'><svg enable-background="new 0 0 48 48" height="48px" version="1.1" viewBox="0 0 48 48" width="48px" xml:space="preserve" xmlns="http://www.w3.org/2000/svg" xmlns:xlink="http://www.w3.org/1999/xlink"><g id="Layer_4"><g><path d="M13.849,35.939h0.022c-0.007,0.159-0.022,0.314-0.022,0.476c0,5.606,4.544,10.152,10.152,10.152    c5.606,0,10.153-4.546,10.153-10.152c0-0.161-0.016-0.316-0.023-0.476h0.023V15.635H13.849V35.939z M16.387,35.939v-3.252v-1.084    v-1.89V18.173h15.228v11.543v1.888v1.084v3.252h-0.023c0.01,0.159,0.023,0.314,0.023,0.476c0,4.205-3.408,7.613-7.614,7.613    c-4.205,0-7.614-3.408-7.614-7.613c0-0.161,0.013-0.316,0.023-0.476H16.387z" fill="#241F20"/><path d="M35.74,1.433l-1.459,2.072c6.334,3.444,10.75,9.96,11.236,17.557l2.461-1.042    C47.172,12.011,42.439,5.177,35.74,1.433z" fill="#241F20"/><path d="M32.838,5.621l-1.465,2.08c5.41,2.707,9.125,8.295,9.125,14.754c0,0.259-0.021,0.512-0.035,0.766    l2.562-1.05C42.92,14.973,38.814,8.762,32.838,5.621z" fill="#241F20"/><path d="M16.579,7.723l-1.472-2.073C9.177,8.791,5.105,14.964,4.979,22.115l2.558,1.06    c-0.013-0.239-0.034-0.476-0.034-0.72C7.503,16.015,11.197,10.439,16.579,7.723z" fill="#241F20"/><path d="M13.726,3.512l-1.463-2.079C5.558,5.178,0.825,12.019,0.022,20.034l2.462,1.038    C2.967,13.471,7.39,6.958,13.726,3.512z" fill="#241F20"/><circle cx="24" cy="24.443" fill="#241F20" r="2.538"/></g></g></svg>